<?xml version="1.0" encoding="UTF-8" standalone="no"?>
<svg
   xmlns:dc="http://purl.org/dc/elements/1.1/"
   xmlns:cc="http://creativecommons.org/ns#"
   xmlns:rdf="http://www.w3.org/1999/02/22-rdf-syntax-ns#"
   xmlns:svg="http://www.w3.org/2000/svg"
   xmlns="http://www.w3.org/2000/svg"
   xmlns:sodipodi="http://sodipodi.sourceforge.net/DTD/sodipodi-0.dtd"
   xmlns:inkscape="http://www.inkscape.org/namespaces/inkscape"
   id="svg8"
   version="1.1"
   viewBox="0 0 64.120828 38.377626"
   height="38.377625mm"
   width="64.120827mm"
   sodipodi:docname="mrlogo.svg"
   inkscape:version="0.92.0 r15299">
  <sodipodi:namedview
     pagecolor="#ffffff"
     bordercolor="#666666"
     borderopacity="1"
     objecttolerance="10"
     gridtolerance="10"
     guidetolerance="10"
     inkscape:pageopacity="0"
     inkscape:pageshadow="2"
     inkscape:window-width="3000"
     inkscape:window-height="1890"
     id="namedview12"
     showgrid="false"
     fit-margin-top="1"
     fit-margin-left="1"
     fit-margin-right="1"
     fit-margin-bottom="1"
     inkscape:zoom="3.842694"
     inkscape:cx="145.11881"
     inkscape:cy="100.47636"
     inkscape:window-x="-12"
     inkscape:window-y="-12"
     inkscape:window-maximized="1"
     inkscape:current-layer="svg8" />
  <title
     id="title4577">MR Logo</title>
  <defs
     id="defs2" />
  <metadata
     id="metadata5">
    <rdf:RDF>
      <cc:Work
         rdf:about="">
        <dc:format>image/svg+xml</dc:format>
        <dc:type
           rdf:resource="http://purl.org/dc/dcmitype/StillImage" />
        <dc:title>MR Logo</dc:title>
      </cc:Work>
    </rdf:RDF>
  </metadata>
  <path
     style="font-style:normal;font-variant:normal;font-weight:normal;font-stretch:normal;font-size:50.79999924px;line-height:6.61458302px;font-family:Arial;-inkscape-font-specification:Arial;letter-spacing:0px;word-spacing:0px;fill:#ff2a2a;fill-opacity:1;stroke:none;stroke-width:0.26458332px;stroke-linecap:butt;stroke-linejoin:miter;stroke-opacity:1"
     d="m 38.888647,1.0139531 v 0.01137 0.655257 0.808736 c -1.54e-4,0.299939 0.0032,0.599757 0.0052,0.899687 0.0021,0.30885 0.0032,0.617703 0.0041,0.926558 7.93e-4,0.238999 7.93e-4,0.477838 0.0011,0.716752 h 8.495605 c 2.695443,0 4.663281,0.553972 5.903516,1.661915 1.256771,1.107942 1.885156,2.5218089 1.885156,4.2416009 0,1.174088 -0.322461,2.265495 -0.967383,3.274219 -0.644922,0.992187 -1.5875,1.719791 -2.827734,2.182812 -1.240235,0.446485 -2.960027,0.669727 -5.159376,0.669727 h -7.340119 c 9.3e-5,0.268396 -5.5e-5,0.536712 0,0.805119 5.9e-5,0.322506 -2.6e-5,0.644877 0,0.967383 0.0011,0.341265 -0.0013,0.682456 -0.0036,1.02371 -0.0033,0.316984 -0.0073,0.634378 -0.01035,0.951362 -0.0013,0.13988 -0.0021,0.279747 -0.0031,0.419614 h 2.594673 c 1.240235,0 2.133204,0.05788 2.678907,0.173632 0.744141,0.181901 1.471745,0.504362 2.182813,0.967383 0.727604,0.463021 1.546158,1.273308 2.455664,2.43086 0.909505,1.157552 2.067057,2.827734 3.472656,5.010547 l 4.81211,7.56543 h 6.052344 L 56.795633,27.480556 C 55.538862,25.54579 54.207677,23.933486 52.802078,22.643642 52.14062,22.048329 51.173237,21.444749 49.89993,20.8329 c 3.489193,-0.479558 6.06888,-1.604037 7.739063,-3.373438 1.670182,-1.769401 2.505273,-3.943946 2.505273,-6.523633 0,-2.0009119 -0.504362,-3.8281899 -1.513086,-5.4818359 -1.008724,-1.653646 -2.356445,-2.80293 -4.043164,-3.447852 -1.686719,-0.661458 -4.150651,-0.992187 -7.391797,-0.992187 z"
     id="path4658"
     inkscape:connector-curvature="0" />
  <path
     style="font-style:normal;font-variant:normal;font-weight:normal;font-stretch:normal;font-size:50.79999924px;line-height:6.61458302px;font-family:Arial;-inkscape-font-specification:Arial;letter-spacing:0px;word-spacing:0px;fill:#ff2a2a;fill-opacity:1;stroke:none;stroke-width:0.26458332px;stroke-linecap:butt;stroke-linejoin:miter;stroke-opacity:1"
     d="m 35.985464,17.062586 c 2.4e-5,0.0011 -1.56e-4,0.0013 0,0.0021 2.64e-4,0.0011 7.93e-4,0.0021 0.0011,0.0031 -1.43e-4,-0.0016 2.6e-5,-0.0033 0,-0.0052 z"
     id="path4656"
     inkscape:connector-curvature="0" />
  <path
     style="font-style:normal;font-variant:normal;font-weight:normal;font-stretch:normal;font-size:50.79999924px;line-height:6.61458302px;font-family:Arial;-inkscape-font-specification:Arial;letter-spacing:0px;word-spacing:0px;fill:#000000;fill-opacity:1;stroke:none;stroke-width:0.26458332px;stroke-linecap:butt;stroke-linejoin:miter;stroke-opacity:1"
     d="M 1.0000001,1.0000001 V 37.363675 h 4.638477 V 6.4074221 L 16.155664,37.363675 h 4.340821 L 31.063282,6.9283211 V 37.363675 h 4.638477 V 2.1730551 c -0.0016,-0.02908 -0.0039,-0.05812 -0.0047,-0.08733 -7.94e-4,-0.06809 -0.0024,-0.136602 0.0011,-0.204639 7.93e-4,-0.01917 0.0026,-0.03824 0.0036,-0.05736 V 1.0000041 H 29.227736 L 20.52129,26.300787 c -0.876433,2.563152 -1.521355,4.506186 -1.934766,5.829102 -0.363802,-1.190625 -0.942578,-2.984831 -1.736328,-5.382617 L 8.2429681,1.0000001 Z"
     id="text3702"
     inkscape:connector-curvature="0" />
  <text
     xml:space="preserve"
     style="font-style:normal;font-variant:normal;font-weight:normal;font-stretch:normal;font-size:50.80000305px;line-height:6.61458349px;font-family:Arial;-inkscape-font-specification:Arial;letter-spacing:0px;word-spacing:0px;fill:#000000;fill-opacity:1;stroke:none;stroke-width:0.26458335px;stroke-linecap:butt;stroke-linejoin:miter;stroke-opacity:1"
     x="37.561455"
     y="28.738884"
     id="text4495"><tspan
       sodipodi:role="line"
       id="tspan4493"
       x="37.561455"
       y="46.054501"
       style="stroke-width:0.26458335px" /></text>
</svg>
